<?xml version="1.0" encoding="UTF-8"?>
<svg xmlns="http://www.w3.org/2000/svg" xmlns:xlink="http://www.w3.org/1999/xlink" width="375pt" height="374.999991pt" viewBox="0 0 375 374.999991" version="1.2">
<defs>
<clipPath id="clip1">
  <path d="M 140.15625 112.5 L 234.65625 112.5 L 234.65625 262.5 L 140.15625 262.5 Z M 140.15625 112.5 "/>
</clipPath>
</defs>
<g id="surface1">
<path style=" stroke:none;fill-rule:nonzero;fill:rgb(98.429871%,76.858521%,22.349548%);fill-opacity:1;" d="M 212.992188 113.835938 C 212.851562 113.964844 192.609375 132.613281 177.804688 155.722656 C 162.144531 178.109375 151.917969 204.960938 152.066406 204.800781 C 153.800781 204.429688 155.535156 204.074219 157.269531 203.734375 C 159.84375 203.226562 162.414062 202.691406 164.988281 202.191406 C 166.273438 201.933594 167.554688 201.679688 168.839844 201.4375 C 170.121094 201.191406 171.40625 200.964844 172.6875 200.71875 C 173.605469 200.542969 174.523438 200.375 175.441406 200.210938 C 174.84375 200.816406 174.25 201.429688 173.660156 202.042969 C 172.390625 203.382812 171.128906 204.742188 169.875 206.128906 C 167.375 208.890625 164.921875 211.746094 162.523438 214.683594 C 161.316406 216.148438 160.140625 217.652344 158.972656 219.175781 C 157.808594 220.695312 156.65625 222.238281 155.515625 223.804688 C 154.179688 225.640625 152.863281 227.511719 151.566406 229.40625 C 153.429688 229.378906 155.296875 229.359375 157.160156 229.34375 C 158.765625 229.332031 160.375 229.324219 161.980469 229.320312 C 163.589844 229.324219 165.199219 229.308594 166.808594 229.300781 C 168.292969 229.292969 169.773438 229.289062 171.257812 229.289062 C 169.71875 230.628906 168.1875 232.003906 166.667969 233.402344 C 165.195312 234.761719 163.730469 236.152344 162.277344 237.570312 C 160.832031 238.992188 159.398438 240.441406 157.976562 241.914062 C 156.550781 243.394531 155.144531 244.898438 153.746094 246.429688 C 152.355469 247.964844 150.976562 249.53125 149.617188 251.125 C 148.257812 252.71875 146.910156 254.339844 145.582031 255.988281 C 144.257812 257.644531 142.949219 259.324219 141.65625 261.035156 C 143.074219 259.5 144.5 257.996094 145.945312 256.515625 C 147.382812 255.027344 148.832031 253.566406 150.296875 252.132812 C 151.757812 250.695312 153.226562 249.28125 154.714844 247.898438 C 156.191406 246.507812 157.683594 245.140625 159.183594 243.800781 C 160.683594 242.460938 162.195312 241.148438 163.71875 239.859375 C 165.234375 238.566406 166.765625 237.300781 168.300781 236.058594 C 171.375 233.578125 174.484375 231.199219 177.628906 228.929688 C 179.050781 227.902344 180.484375 226.894531 181.921875 225.910156 C 180.226562 225.671875 178.53125 225.4375 176.835938 225.203125 C 173.660156 224.765625 170.484375 224.328125 167.304688 223.898438 C 166.03125 223.730469 164.753906 223.558594 163.480469 223.398438 C 163.972656 222.773438 172.640625 212.527344 181.882812 204.101562 C 191.015625 195.410156 200.71875 188.539062 200.675781 188.527344 C 196.320312 188.890625 191.953125 189.355469 187.574219 189.925781 C 185.003906 190.261719 182.433594 190.636719 179.859375 191.0625 C 178.574219 191.28125 177.285156 191.511719 176 191.746094 C 174.710938 191.988281 173.421875 192.238281 172.132812 192.496094 C 170.847656 192.75 169.558594 193.039062 168.269531 193.332031 C 167.929688 193.40625 167.585938 193.484375 167.242188 193.566406 C 170.296875 190.433594 173.414062 187.417969 176.585938 184.519531 C 182.488281 179.082031 188.582031 174.0625 194.804688 169.460938 C 201.03125 164.855469 207.390625 160.671875 213.839844 156.902344 C 213.777344 156.570312 232.398438 146.753906 233.285156 146.660156 C 225.957031 136.246094 219.175781 125.292969 212.992188 113.835938 "/>
<g clip-path="url(#clip1)" clip-rule="nonzero">
<path style="fill:none;stroke-width:60;stroke-linecap:butt;stroke-linejoin:round;stroke:rgb(20.779419%,12.159729%,9.01947%);stroke-opacity:1;stroke-miterlimit:4;" d="M 2717.049868 3827.122194 C 2713.793106 3824.142741 2245.000332 3393.115166 1902.135682 2858.98045 C 1539.459065 2341.54873 1302.620107 1720.919582 1306.0578 1724.621327 C 1346.224529 1733.198541 1386.391259 1741.414609 1426.557988 1749.269531 C 1486.174823 1761.006772 1545.701192 1773.376017 1605.318027 1784.932684 C 1635.081211 1790.891591 1664.75393 1796.760211 1694.517115 1802.357972 C 1724.189834 1808.046019 1753.953019 1813.282634 1783.625738 1818.970681 C 1804.885155 1823.033572 1826.144573 1826.91589 1847.40399 1830.707921 C 1833.562753 1816.713519 1819.81198 1802.538545 1806.151674 1788.36357 C 1776.750351 1757.395313 1747.529961 1725.975624 1718.490501 1693.923929 C 1660.592512 1630.0914 1603.780111 1564.091995 1548.234229 1496.196575 C 1520.280356 1462.339151 1493.050209 1427.578863 1466.000992 1392.367143 C 1439.042242 1357.245708 1412.354888 1321.582555 1385.938931 1285.377684 C 1354.999693 1242.943046 1324.512784 1199.69583 1294.478202 1155.906896 C 1337.630297 1156.538901 1380.872857 1156.990333 1424.024951 1157.351479 C 1461.206315 1157.622338 1498.478145 1157.802911 1535.65951 1157.893198 C 1572.93134 1157.802911 1610.20317 1158.164057 1647.475 1158.34463 C 1681.85193 1158.525203 1716.138395 1158.615489 1750.515326 1158.615489 C 1714.871877 1127.647233 1679.409359 1095.866398 1644.218238 1063.543844 C 1610.112704 1032.124155 1576.188101 999.982174 1542.534896 967.208188 C 1509.062621 934.343915 1475.861744 900.847637 1442.932263 866.809641 C 1409.912316 832.591071 1377.344698 797.830783 1344.958011 762.438489 C 1312.752255 726.955909 1280.817896 690.751037 1249.335864 653.91416 C 1217.853833 617.077283 1186.643199 579.608401 1155.884893 541.507514 C 1125.217052 503.226053 1094.911074 464.402874 1064.966958 424.857403 C 1097.805973 460.339983 1130.82592 495.100272 1164.298194 529.318841 C 1197.589537 563.717984 1231.152277 597.485121 1265.07688 630.620253 C 1298.911017 663.845671 1332.926085 696.529371 1367.393481 728.490779 C 1401.58948 760.63276 1436.147342 792.233022 1470.886135 823.201279 C 1505.624928 854.169536 1540.635118 884.505787 1575.916705 914.30032 C 1611.01736 944.185139 1646.479878 973.437954 1682.032861 1002.149049 C 1753.229294 1059.480953 1825.239917 1114.465409 1898.06473 1166.921844 C 1930.994211 1190.667184 1964.195089 1213.961091 1997.486432 1236.71328 C 1958.224359 1242.220754 1918.962285 1247.637942 1879.700212 1253.05513 C 1806.151674 1263.167214 1732.603135 1273.279298 1658.964132 1283.210809 C 1629.472344 1287.093126 1599.89009 1291.065731 1570.398303 1294.767476 C 1581.796969 1309.21331 1782.54015 1546.034703 1996.581776 1740.782604 C 2208.090364 1941.669984 2432.806931 2100.483873 2431.81181 2100.754732 C 2330.942658 2092.358091 2229.80211 2081.614002 2128.390165 2068.432179 C 2068.863796 2060.667543 2009.337426 2052.000042 1949.720592 2042.158818 C 1919.957407 2037.102776 1890.103757 2031.775875 1860.340572 2026.358687 C 1830.486922 2020.760926 1800.633272 2014.982592 1770.779621 2009.023686 C 1741.016437 2003.155066 1711.162787 1996.473867 1681.309136 1989.702383 C 1673.438629 1987.98694 1665.477655 1986.181211 1657.516682 1984.285195 C 1728.260786 2056.694938 1800.45234 2126.396088 1873.910413 2193.388644 C 2010.603945 2319.0674 2151.730291 2435.085505 2295.842003 2541.442959 C 2440.04418 2647.890699 2587.322188 2744.587501 2736.680904 2831.713938 C 2735.233455 2839.388287 3166.483002 3066.278169 3187.018694 3068.445044 C 3017.305216 3309.148755 2860.256923 3562.311998 2717.049868 3827.122194 Z M 2717.049868 3827.122194 " transform="matrix(0.0431794,0,0,-0.0432651,95.671623,279.416641)"/>
</g>
<path style="fill:none;stroke-width:60;stroke-linecap:round;stroke-linejoin:round;stroke:rgb(20.779419%,12.159729%,9.01947%);stroke-opacity:1;stroke-miterlimit:4;" d="M 1696.597824 2312.025056 C 1925.294878 2750.907554 2516.668549 3506.334391 2664.48935 3561.770279 " transform="matrix(0.0431794,0,0,-0.0432651,95.671623,279.416641)"/>
<path style="fill:none;stroke-width:60;stroke-linecap:round;stroke-linejoin:round;stroke:rgb(20.779419%,12.159729%,9.01947%);stroke-opacity:1;stroke-miterlimit:4;" d="M 2720.035233 3474.011837 L 2966.734942 3106.816791 " transform="matrix(0.0431794,0,0,-0.0432651,95.671623,279.416641)"/>
</g>
</svg>
